<?xml version="1.0" standalone="no"?>
<!DOCTYPE svg PUBLIC "-//W3C//DTD SVG 20010904//EN"
 "http://www.w3.org/TR/2001/REC-SVG-20010904/DTD/svg10.dtd">
<svg version="1.0" xmlns="http://www.w3.org/2000/svg"
 width="500.000000pt" height="500.000000pt" viewBox="0 0 500.000000 500.000000"
 preserveAspectRatio="xMidYMid meet">

<g transform="translate(0.000000,500.000000) scale(0.100000,-0.100000)"
fill="#000000" stroke="none">
<path d="M3083 4103 c9 -2 23 -2 30 0 6 3 -1 5 -18 5 -16 0 -22 -2 -12 -5z"/>
<path d="M3125 4095 c-5 -2 -23 -6 -38 -9 -22 -5 -27 -11 -22 -26 8 -27 -41
-202 -62 -217 -14 -11 -7 -13 44 -13 45 0 64 4 74 17 10 12 11 15 1 9 -10 -6
-11 -1 -6 21 8 35 13 43 24 43 4 0 6 -18 3 -39 -5 -37 -4 -39 25 -46 48 -10
73 8 65 48 -6 36 -31 69 -44 61 -5 -3 -6 2 -3 11 5 12 10 13 17 6 33 -33 78 9
51 47 -12 18 -19 19 -43 11 -17 -6 -34 -22 -41 -40 -7 -16 -19 -29 -27 -29
-10 0 -11 5 -5 18 5 9 7 23 4 31 -2 8 -1 11 4 8 5 -3 10 12 11 33 2 37 -11 60
-32 55z"/>
<path d="M3773 4058 c-20 -5 -30 -13 -27 -21 2 -7 -16 -57 -42 -111 -51 -108
-50 -130 7 -109 24 10 31 9 36 -2 3 -8 20 -17 38 -21 40 -7 85 14 104 50 8 14
17 24 20 21 10 -6 0 79 -11 93 -6 6 -27 12 -47 13 -29 0 -32 2 -16 9 11 5 14
9 7 9 -8 1 -10 9 -7 24 9 35 -21 57 -62 45z m57 -130 c0 -24 -42 -98 -56 -98
-18 0 -18 10 2 60 9 22 20 37 25 34 5 -3 9 0 9 5 0 6 5 11 10 11 6 0 10 -5 10
-12z"/>
<path d="M3610 4050 c14 -5 18 -8 9 -9 -9 -1 -22 -8 -29 -16 -7 -8 -24 -15
-37 -15 -22 0 -24 -3 -18 -29 4 -17 0 -44 -9 -66 -26 -61 -21 -83 17 -90 18
-4 44 -2 59 4 14 5 28 8 30 5 3 -2 5 3 5 11 0 8 -9 15 -19 15 -22 0 -23 12 -2
67 11 29 23 43 35 43 24 0 34 19 15 26 -9 3 -16 14 -16 23 0 23 -20 41 -44 40
-18 -1 -17 -2 4 -9z"/>
<path d="M3198 4033 c7 -3 16 -2 19 1 4 3 -2 6 -13 5 -11 0 -14 -3 -6 -6z"/>
<path d="M3391 4018 c-74 -13 -112 -67 -96 -138 5 -24 14 -32 43 -40 47 -12
91 -1 110 28 15 23 15 23 -29 18 -33 -4 -38 -3 -19 3 l25 9 -27 1 c-41 1 -34
21 8 21 79 0 109 55 51 93 -16 9 -34 11 -66 5z m19 -37 c0 -21 -13 -41 -26
-41 -11 0 -11 5 -2 25 11 24 28 34 28 16z"/>
<path d="M2887 4004 c-62 -16 -77 -29 -77 -70 0 -25 -4 -34 -17 -35 -12 -1
-10 -4 7 -9 14 -5 18 -8 9 -9 -9 -1 -19 -12 -21 -26 -6 -30 14 -39 84 -37 41
1 128 33 128 48 0 3 -4 3 -9 -1 -5 -3 -11 7 -13 22 -2 21 -14 32 -50 50 -52
26 -60 38 -27 40 15 1 19 -2 15 -13 -5 -12 2 -15 32 -12 47 4 55 30 15 50 -23
12 -37 12 -76 2z m-17 -137 c0 -8 3 -8 9 2 6 9 11 10 15 2 8 -13 -1 -31 -15
-31 -12 0 -48 40 -49 53 0 4 9 3 20 -3 11 -6 20 -16 20 -23z"/>
<path d="M3294 3998 l-19 -23 23 19 c21 18 27 26 19 26 -2 0 -12 -10 -23 -22z"/>
<path d="M2413 3993 c9 -2 23 -2 30 0 6 3 -1 5 -18 5 -16 0 -22 -2 -12 -5z"/>
<path d="M2445 3983 c-11 -2 -53 -11 -93 -19 -70 -15 -73 -17 -68 -39 3 -14 3
-63 0 -110 -6 -75 -10 -88 -28 -95 -40 -16 34 -10 116 9 102 24 128 42 128 85
0 18 -7 39 -15 46 -14 12 -14 15 0 30 33 37 6 101 -40 93z m-30 -53 c8 -24
-11 -60 -30 -60 -19 0 -21 66 -2 73 21 9 26 7 32 -13z m0 -110 c9 -27 -12 -60
-37 -60 -21 0 -21 0 -2 15 16 13 16 14 2 9 -19 -6 -24 10 -12 40 9 22 41 20
49 -4z"/>
<path d="M2391 3924 c0 -11 3 -14 6 -6 3 7 2 16 -1 19 -3 4 -6 -2 -5 -13z"/>
<path d="M2618 3983 c7 -3 16 -2 19 1 4 3 -2 6 -13 5 -11 0 -14 -3 -6 -6z"/>
<path d="M2665 3980 c4 -6 -5 -10 -20 -10 -40 0 -65 -18 -65 -45 0 -14 -5 -25
-12 -25 -6 0 -9 -2 -7 -4 3 -3 24 0 47 6 31 8 42 15 42 29 0 11 5 19 10 19 6
0 10 -13 10 -30 0 -27 -3 -30 -29 -30 -67 0 -107 -36 -95 -85 5 -21 12 -25 44
-25 22 0 42 5 45 11 4 6 19 10 33 9 59 -4 72 0 87 30 8 16 15 35 14 42 0 7 -5
2 -12 -12 -11 -23 -12 -21 -15 30 -4 60 -15 80 -44 80 -10 0 -16 5 -13 10 3 6
-1 10 -10 10 -9 0 -13 -4 -10 -10z m-5 -124 c0 -7 -6 -19 -14 -25 -19 -16 -31
4 -14 23 17 19 28 20 28 2z"/>
<path d="M2782 3950 c0 -14 2 -19 5 -12 2 6 2 18 0 25 -3 6 -5 1 -5 -13z"/>
<path d="M4268 3963 c7 -3 16 -2 19 1 4 3 -2 6 -13 5 -11 0 -14 -3 -6 -6z"/>
<path d="M4298 3952 c-18 -2 -28 -9 -28 -20 0 -22 -85 -161 -112 -184 -20 -18
-20 -18 4 -26 52 -20 88 -22 88 -6 0 8 25 54 55 101 30 48 55 92 55 98 0 21
-34 41 -62 37z"/>
<path d="M2550 3936 c0 -8 4 -17 9 -20 5 -4 7 3 4 14 -6 23 -13 26 -13 6z"/>
<path d="M4032 3943 c-12 -2 -30 -15 -38 -29 -9 -13 -24 -25 -33 -25 -9 -1 -2
-5 14 -9 l30 -8 -27 -1 c-39 -1 -65 -43 -49 -77 10 -23 16 -25 59 -23 32 2 46
-1 45 -9 -3 -11 23 -17 57 -14 48 6 48 6 37 23 -8 13 -6 27 7 57 10 22 15 48
12 59 -7 21 -60 56 -70 46 -3 -3 -6 -1 -6 5 0 7 -3 11 -7 11 -5 -1 -18 -4 -31
-6z m48 -52 c0 -26 -29 -49 -40 -32 -4 8 -13 10 -19 7 -6 -4 -11 -2 -11 3 0 6
11 11 25 11 19 0 25 5 25 21 0 11 5 17 10 14 6 -3 10 -14 10 -24z m-41 -77
c-6 -8 -18 -14 -27 -14 -13 0 -12 3 3 20 20 22 43 17 24 -6z"/>
<path d="M3262 3920 c0 -14 2 -19 5 -12 2 6 2 18 0 25 -3 6 -5 1 -5 -13z"/>
<path d="M2263 3895 c0 -22 2 -30 4 -17 2 12 2 30 0 40 -3 9 -5 -1 -4 -23z"/>
<path d="M4438 3912 c-10 -2 -18 -11 -18 -21 0 -25 -116 -189 -137 -193 -10
-2 7 -12 39 -21 68 -21 68 -21 68 -3 0 8 27 53 60 102 33 48 60 93 60 100 0
16 -50 41 -72 36z"/>
<path d="M3481 3874 c0 -11 3 -14 6 -6 3 7 2 16 -1 19 -3 4 -6 -2 -5 -13z"/>
<path d="M2073 3845 c4 -5 -6 -14 -23 -21 -16 -7 -30 -20 -30 -29 0 -20 -18
-20 -22 0 -2 13 -10 12 -48 -7 -37 -19 -45 -28 -47 -53 -1 -20 0 -23 4 -7 2
12 9 22 15 22 6 0 9 -29 6 -80 -4 -89 -8 -86 71 -54 27 11 32 17 23 26 -15 15
-16 122 -2 113 6 -3 10 -1 10 5 0 6 4 9 9 6 4 -3 7 -30 6 -61 -2 -50 -1 -55
19 -56 35 -2 50 2 69 18 17 17 24 49 8 38 -6 -3 -13 16 -16 42 -3 27 -7 54 -8
62 -1 7 -13 21 -27 29 -14 9 -22 12 -17 7z"/>
<path d="M1800 3815 c-7 -8 -10 -25 -6 -40 6 -22 9 -23 31 -13 29 13 34 52 9
62 -21 8 -20 8 -34 -9z"/>
<path d="M1825 3749 c-5 -5 -22 -19 -37 -30 -16 -11 -28 -28 -27 -37 0 -11 2
-12 6 -4 11 28 21 8 28 -54 5 -48 3 -69 -5 -74 -29 -18 10 -16 53 2 36 16 46
25 41 37 -3 9 -8 44 -11 78 -6 63 -27 100 -48 82z"/>
<path d="M4276 3725 c-11 -8 -15 -15 -9 -15 6 0 16 7 23 15 16 19 11 19 -14 0z"/>
<path d="M3085 3700 c-274 -21 -429 -41 -625 -80 -437 -87 -844 -255 -1185
-488 -228 -157 -582 -449 -564 -466 2 -3 62 20 133 50 71 30 130 53 132 52 1
-2 -23 -21 -54 -43 -235 -162 -439 -372 -603 -619 -162 -243 -260 -496 -314
-806 -4 -23 -4 -23 8 -6 6 10 52 73 101 139 205 276 463 498 699 600 95 40
229 77 287 77 65 0 66 15 3 40 -103 41 -103 41 -53 57 77 24 267 52 430 64
331 24 637 -29 917 -161 183 -86 274 -154 565 -420 154 -142 234 -201 353
-260 153 -77 266 -103 450 -103 162 -1 253 13 395 60 325 109 611 342 735 599
110 226 134 504 63 724 -23 71 -57 145 -64 138 -2 -3 1 -31 8 -64 17 -88 13
-305 -7 -399 -94 -446 -407 -772 -850 -886 -128 -33 -388 -34 -518 -1 -322 81
-583 280 -739 567 -43 80 -43 80 -127 122 -298 148 -719 213 -1096 168 -65 -8
-121 -13 -123 -11 -6 7 275 55 413 72 270 32 608 18 771 -31 l44 -13 0 28 c0
26 -3 29 -62 39 -281 48 -685 46 -978 -5 -198 -34 -558 -135 -845 -237 -38
-14 -62 -20 -52 -14 10 7 104 77 210 155 459 343 683 467 1072 596 176 59 565
151 603 144 9 -2 -26 -12 -78 -22 -591 -116 -1002 -290 -1428 -606 -37 -27
-96 -71 -131 -97 -35 -27 -76 -55 -90 -65 -45 -28 -89 -71 -66 -63 40 13 342
106 420 129 339 100 551 131 900 129 179 0 275 -5 378 -20 114 -16 137 -17
132 -5 -3 7 -5 62 -5 122 0 105 -1 109 -22 113 -21 4 -20 4 3 6 23 1 27 6 32
49 3 26 9 61 12 77 l7 31 -44 -4 c-289 -22 -678 -106 -982 -212 -131 -45 -318
-122 -312 -128 2 -2 60 10 127 27 142 35 261 53 144 22 -38 -10 -115 -28 -170
-41 -55 -13 -124 -31 -152 -41 -82 -28 -63 -2 30 40 155 72 388 157 552 201
44 12 93 26 109 31 38 12 226 52 336 73 63 11 329 46 355 46 1 0 13 33 25 73
13 39 32 89 42 110 l19 38 -63 -5 -63 -5 70 15 70 16 32 59 c24 43 29 59 18
59 -35 0 -312 -44 -419 -66 -444 -94 -894 -289 -1301 -565 -239 -162 -360
-263 -716 -597 -111 -105 -158 -138 -113 -79 79 103 279 329 360 407 190 182
558 471 778 609 430 270 817 405 1495 522 171 29 175 30 237 75 82 58 207 117
313 147 82 24 83 24 45 30 -58 10 -163 6 -419 -13z m-495 -1015 c-8 -2 -103
-11 -210 -20 -214 -18 -548 -60 -601 -75 -19 -6 -47 -10 -64 -9 l-30 1 35 9
c137 33 671 97 815 97 39 0 63 -2 55 -3z"/>
<path d="M1666 3675 c-77 -27 -107 -84 -82 -154 6 -18 5 -22 -4 -16 -9 5 -11
4 -6 -4 4 -6 11 -9 16 -6 4 3 10 1 12 -4 3 -10 36 -15 74 -13 27 2 74 49 74
73 0 24 -4 24 -40 -3 -25 -18 -32 -19 -45 -8 -15 12 -13 16 17 31 18 9 37 15
42 12 5 -4 6 -1 2 5 -3 6 -2 13 4 17 16 10 12 50 -7 68 -16 13 -23 14 -57 2z
m-1 -55 c7 -21 0 -40 -15 -40 -5 0 -8 13 -7 30 2 34 13 39 22 10z"/>
<path d="M3565 3670 c-431 -93 -759 -419 -851 -845 -24 -112 -24 -332 0 -445
77 -362 330 -663 668 -796 144 -56 211 -68 398 -68 153 -1 186 2 265 23 313
82 571 287 711 564 86 169 118 303 118 497 0 202 -34 339 -129 517 -141 265
-390 462 -685 540 -133 36 -364 42 -495 13z m422 -66 c-3 -3 -12 -4 -19 -1 -8
3 -5 6 6 6 11 1 17 -2 13 -5z m228 -74 c3 -6 -1 -7 -9 -4 -18 7 -21 14 -7 14
6 0 13 -4 16 -10z m-1265 -448 c-26 -78 -40 -88 -40 -29 0 21 58 123 65 116 2
-2 -9 -41 -25 -87z m1768 -57 c-3 -3 -9 2 -12 12 -6 14 -5 15 5 6 7 -7 10 -15
7 -18z m-1819 -56 c8 -25 8 -50 1 -88 -5 -30 -10 -110 -10 -178 0 -124 0 -124
-22 -118 -13 4 -36 15 -53 24 -30 17 -30 19 -27 90 4 69 27 163 69 273 19 52
25 51 42 -3z m202 -22 c-10 -9 -11 -8 -5 6 3 10 9 15 12 12 3 -3 0 -11 -7 -18z
m156 -83 c-3 -3 -12 -4 -19 -1 -8 3 -5 6 6 6 11 1 17 -2 13 -5z m-44 -11 c-7
-2 -21 -2 -30 0 -10 3 -4 5 12 5 17 0 24 -2 18 -5z m-56 -79 c-3 -3 -12 -4
-19 -1 -8 3 -5 6 6 6 11 1 17 -2 13 -5z m206 -1 c-7 -2 -19 -2 -25 0 -7 3 -2
5 12 5 14 0 19 -2 13 -5z m-246 -75 c-3 -8 -6 -5 -6 6 -1 11 2 17 5 13 3 -3 4
-12 1 -19z m-350 -45 c-3 -10 -5 -2 -5 17 0 19 2 27 5 18 2 -10 2 -26 0 -35z
m78 -77 c51 -33 54 -38 65 -93 6 -32 22 -94 35 -138 13 -43 23 -80 22 -81 -1
-1 -30 -4 -64 -8 l-61 -7 -16 53 c-32 111 -59 308 -42 308 4 0 31 -15 61 -34z
m-78 -63 c-3 -10 -5 -2 -5 17 0 19 2 27 5 18 2 -10 2 -26 0 -35z m230 -135
c-2 -24 -4 -7 -4 37 0 44 2 63 4 43 2 -21 2 -57 0 -80z m390 86 c-3 -3 -12 -4
-19 -1 -8 3 -5 6 6 6 11 1 17 -2 13 -5z m-300 -126 c-2 -24 -4 -7 -4 37 0 44
2 63 4 43 2 -21 2 -57 0 -80z m470 96 c-3 -3 -12 -4 -19 -1 -8 3 -5 6 6 6 11
1 17 -2 13 -5z m230 -30 c-3 -3 -12 -4 -19 -1 -8 3 -5 6 6 6 11 1 17 -2 13 -5z
m86 -11 c-7 -2 -21 -2 -30 0 -10 3 -4 5 12 5 17 0 24 -2 18 -5z m-436 -39 c-3
-3 -12 -4 -19 -1 -8 3 -5 6 6 6 11 1 17 -2 13 -5z m216 -41 c-7 -2 -19 -2 -25
0 -7 3 -2 5 12 5 14 0 19 -2 13 -5z m300 -30 c-13 -2 -33 -2 -45 0 -13 2 -3 4
22 4 25 0 35 -2 23 -4z m-1020 -64 c40 -8 61 -18 72 -35 15 -23 79 -284 71
-291 -5 -5 -86 91 -126 151 -39 57 -90 156 -90 174 0 15 3 15 73 1z m174 -191
c-3 -7 -5 -2 -5 12 0 14 2 19 5 13 2 -7 2 -19 0 -25z m73 -113 c53 -67 121
-127 247 -217 81 -58 89 -66 68 -70 -13 -3 -22 -2 -20 3 3 4 -12 13 -32 20
-77 25 -237 119 -295 173 -25 24 -29 37 -43 149 -7 48 -11 52 75 -58z m658
-342 c-26 -2 -71 -2 -100 0 -29 2 -8 3 47 3 55 0 79 -1 53 -3z"/>
<path d="M1459 3620 c-9 -5 -20 -22 -24 -37 -3 -15 -15 -33 -27 -41 -20 -14
-19 -14 4 -26 18 -9 25 -24 32 -69 8 -56 9 -57 41 -57 22 0 41 9 59 26 32 32
36 60 7 44 -17 -8 -21 -5 -30 23 -16 53 -17 73 -1 92 13 15 12 19 -9 36 -26
22 -30 22 -52 9z"/>
<path d="M1772 3590 c0 -19 2 -27 5 -17 2 9 2 25 0 35 -3 9 -5 1 -5 -18z"/>
<path d="M1551 3554 c0 -11 3 -14 6 -6 3 7 2 16 -1 19 -3 4 -6 -2 -5 -13z"/>
<path d="M1375 3549 c-4 -6 -5 -12 -2 -15 2 -3 7 2 10 11 7 17 1 20 -8 4z"/>
<path d="M1306 3489 c-58 -28 -86 -58 -86 -91 0 -20 -4 -27 -12 -22 -7 4 -8 3
-4 -5 4 -6 12 -9 17 -6 5 4 12 -1 15 -9 4 -12 16 -14 55 -9 40 5 49 3 49 -10
0 -24 -18 -30 -35 -13 -22 22 -60 6 -60 -25 0 -17 6 -25 22 -27 45 -7 143 64
143 103 0 33 -20 45 -77 45 -38 0 -53 4 -53 13 0 22 11 27 27 12 16 -17 58
-21 48 -5 -3 6 -1 10 4 10 15 0 14 35 -1 48 -9 7 -25 5 -52 -9z"/>
<path d="M1130 3470 c-64 -33 -86 -75 -66 -122 6 -13 2 -20 -15 -27 -24 -10
-24 -10 23 -15 15 -1 47 -81 47 -118 1 -34 7 -35 54 -3 38 26 45 39 27 50 -5
3 -17 31 -26 62 -13 45 -14 61 -5 76 16 25 8 32 -19 17 -18 -10 -24 -9 -31 1
-12 19 -11 37 3 45 7 5 8 3 3 -5 -5 -9 1 -12 20 -9 37 4 55 32 35 52 -13 13
-19 12 -50 -4z"/>
<path d="M1421 3434 c0 -11 3 -14 6 -6 3 7 2 16 -1 19 -3 4 -6 -2 -5 -13z"/>
<path d="M1192 3410 c0 -14 2 -19 5 -12 2 6 2 18 0 25 -3 6 -5 1 -5 -13z"/>
<path d="M1000 3391 l25 -7 -26 -7 c-33 -8 -89 -70 -89 -98 0 -11 -4 -18 -8
-15 -4 2 -8 -4 -8 -15 0 -18 2 -18 12 -5 6 9 14 13 17 9 13 -12 7 -24 -15 -33
-21 -8 -22 -9 -3 -11 11 -1 23 -1 27 -1 12 2 26 -24 45 -85 l19 -63 42 31 42
31 -19 23 c-28 37 -45 108 -32 134 10 17 9 21 -3 21 -8 0 -18 -4 -21 -10 -10
-16 -28 -11 -21 6 3 8 2 13 -3 10 -10 -7 -23 19 -14 28 4 3 14 -1 24 -10 16
-14 19 -14 38 3 12 9 21 22 21 29 0 17 -35 44 -56 43 -14 -1 -13 -3 6 -8z"/>
<path d="M929 3363 c-13 -16 -12 -17 4 -4 9 7 17 15 17 17 0 8 -8 3 -21 -13z"/>
<path d="M806 3139 c-40 -32 -59 -76 -53 -125 3 -31 1 -42 -7 -37 -6 3 -9 4
-6 0 3 -3 8 -5 12 -4 4 1 13 -7 21 -17 30 -41 109 -16 147 47 25 41 25 83 0
125 -16 26 -26 32 -54 32 -19 0 -45 -9 -60 -21z m53 -80 c22 -50 22 -87 0 -73
-14 8 -48 84 -49 107 0 35 28 16 49 -34z"/>
<path d="M759 3133 c-13 -16 -12 -17 4 -4 9 7 17 15 17 17 0 8 -8 3 -21 -13z"/>
<path d="M960 3085 c0 -14 4 -25 9 -25 4 0 6 11 3 25 -2 14 -6 25 -8 25 -2 0
-4 -11 -4 -25z"/>
<path d="M589 3053 l-34 -38 38 34 c20 19 37 36 37 38 0 8 -8 0 -41 -34z"/>
<path d="M618 3043 c-34 -35 -53 -73 -29 -59 5 3 18 -9 30 -26 l20 -33 -21
-22 c-25 -26 -43 -30 -34 -7 3 8 2 13 -3 10 -10 -7 -33 42 -26 55 4 5 0 9 -7
8 -7 0 -29 -19 -48 -41 -29 -35 -32 -41 -18 -49 18 -10 98 -153 98 -175 0 -22
13 -17 49 20 l33 34 -26 35 c-14 18 -26 41 -26 49 0 18 24 41 33 31 4 -3 7 0
7 8 1 8 10 -3 21 -24 11 -21 17 -42 14 -47 -3 -5 -1 -11 3 -14 5 -3 26 13 47
34 l39 40 -21 22 c-23 26 -89 146 -94 172 -3 14 -12 9 -41 -21z"/>
<path d="M722 3040 c0 -14 2 -19 5 -12 2 6 2 18 0 25 -3 6 -5 1 -5 -13z"/>
<path d="M494 2958 l-29 -33 33 29 c30 28 37 36 29 36 -2 0 -16 -15 -33 -32z"/>
<path d="M662 2820 c0 -14 2 -19 5 -12 2 6 2 18 0 25 -3 6 -5 1 -5 -13z"/>
<path d="M316 2734 c-40 -47 -41 -53 -9 -58 10 -2 17 -11 17 -19 -1 -9 3 -15
10 -14 6 1 10 -6 10 -15 -1 -10 3 -16 10 -15 6 1 10 -6 10 -15 -1 -10 3 -16
10 -15 6 1 10 -6 10 -15 -1 -10 3 -16 9 -15 7 1 13 -8 15 -20 2 -13 -1 -23 -7
-23 -6 0 -11 7 -11 15 0 18 -45 49 -62 42 -8 -3 -6 -6 5 -6 17 -1 17 -2 3 -17
-9 -8 -16 -22 -16 -30 0 -9 -5 -12 -12 -8 -7 4 -8 3 -4 -5 4 -6 11 -9 16 -6 4
3 13 -2 20 -10 41 -50 140 46 120 116 -5 15 -27 54 -49 88 -23 33 -41 67 -41
75 0 25 -12 18 -54 -30z"/>
<path d="M289 2743 c-13 -16 -12 -17 4 -4 9 7 17 15 17 17 0 8 -8 3 -21 -13z"/>
<path d="M550 2710 c0 -11 4 -20 9 -20 5 0 7 9 4 20 -3 11 -7 20 -9 20 -2 0
-4 -9 -4 -20z"/>
<path d="M167 2550 c-20 -27 -37 -51 -37 -54 0 -2 9 -6 20 -9 13 -3 18 -1 13
6 -4 7 1 6 10 -2 10 -7 16 -20 15 -27 -2 -7 0 -12 3 -11 9 3 39 -24 39 -35 0
-5 -5 -6 -12 -2 -7 4 -8 3 -4 -5 4 -6 11 -9 16 -6 12 7 40 -35 40 -60 -1 -19
-1 -20 -15 -1 -8 10 -12 22 -10 27 3 4 -7 4 -22 0 -22 -6 -28 -13 -28 -36 0
-15 7 -32 16 -38 24 -15 71 7 92 42 30 50 22 87 -33 161 -27 37 -50 75 -50 84
0 27 -14 18 -53 -34z"/>
<path d="M161 2344 c0 -11 3 -14 6 -6 3 7 2 16 -1 19 -3 4 -6 -2 -5 -13z"/>
<path d="M1522 2190 c-29 -12 -46 -54 -32 -81 11 -19 43 -25 74 -13 23 9 19
24 -5 21 -12 -1 -24 4 -26 11 -3 7 5 12 20 12 28 0 55 26 41 39 -16 15 -48 20
-72 11z m24 -37 c-10 -10 -19 5 -10 18 6 11 8 11 12 0 2 -7 1 -15 -2 -18z"/>
<path d="M1787 2186 c-15 -7 -25 -15 -21 -18 3 -4 0 -23 -7 -42 -16 -44 -3
-62 37 -52 21 6 24 10 14 16 -18 11 6 70 29 70 12 0 13 2 3 9 -8 4 -13 12 -12
17 2 13 -12 13 -43 0z"/>
<path d="M1637 2183 c-14 -13 -6 -43 13 -53 11 -6 20 -15 20 -20 0 -16 -22
-12 -35 7 -14 18 -37 10 -29 -11 7 -19 69 -29 94 -16 27 15 25 30 -7 56 -16
12 -24 26 -20 31 5 4 13 0 18 -10 6 -9 17 -17 24 -17 20 0 19 26 -1 34 -21 8
-69 8 -77 -1z"/>
<path d="M2015 2140 c-3 -5 -3 -14 0 -20 9 -15 33 -12 43 6 7 12 11 13 16 5
12 -19 -14 -41 -50 -41 -23 0 -38 -7 -48 -22 -19 -27 -14 -31 46 -48 53 -14
78 -9 78 16 0 10 -5 14 -14 11 -20 -8 -88 12 -81 23 3 5 27 6 53 3 38 -4 51
-2 62 12 13 15 11 20 -13 41 -29 24 -81 32 -92 14z"/>
<path d="M1844 2089 c-10 -17 13 -36 27 -22 12 12 4 33 -11 33 -5 0 -12 -5
-16 -11z"/>
<path d="M2184 2090 c-49 -19 -71 -90 -35 -110 40 -21 87 -12 115 21 14 17 26
36 26 43 0 32 -67 61 -106 46z m57 -38 c-14 -27 -62 -75 -67 -69 -10 9 5 41
31 70 28 29 52 28 36 -1z"/>
<path d="M2331 2026 c-16 -19 2 -30 36 -22 18 5 24 3 21 -6 -3 -7 -27 -15 -57
-18 -49 -5 -76 -23 -65 -42 8 -12 81 -48 97 -48 8 0 20 7 27 15 10 12 10 15
-3 15 -24 0 -87 32 -81 41 2 4 19 3 37 -2 17 -5 44 -9 59 -9 23 0 28 4 28 25
0 39 -76 79 -99 51z"/>
<path d="M2479 1949 c-12 -8 -11 -12 5 -24 15 -11 23 -12 33 -3 17 13 28 4 20
-17 -4 -8 -15 -15 -25 -15 -13 0 -18 -7 -18 -22 1 -17 -5 -23 -19 -23 -15 0
-19 6 -17 23 4 25 -23 41 -40 24 -16 -16 6 -47 47 -66 41 -20 75 -13 75 14 0
9 9 20 20 23 25 6 26 38 2 60 -26 24 -67 37 -83 26z"/>
</g>
</svg>
